<svg xmlns="http://www.w3.org/2000/svg" viewBox="0 0 752 471" preserveAspectRatio="xMidYMid meet" fill-rule="evenodd"><rect x="1" width="750" height="471" rx="40" fill="#2557D6" y="0"/><path d="M1.003 221.185h36.024l8.123-19.5h18.185l8.1 19.5h70.88V206.27l6.327 14.98h36.796l6.327-15.202v15.14h176.15l-.082-32.026h3.408c2.387.082 3.084.302 3.084 4.226v27.8h91.106v-7.455c7.35 3.92 18.778 7.455 33.82 7.455h38.328l8.203-19.5h18.185l8.022 19.5h73.86v-18.532l11.185 18.532h59.187v-122.5h-58.575v14.468l-8.203-14.468h-60.105v14.468l-7.532-14.468H500.62c-13.6 0-25.536 1.9-35.186 7.153v-7.153h-56.026v7.153c-6.14-5.426-14.508-7.153-23.812-7.153H180.908l-13.734 31.642-14.104-31.642H88.6v14.468l-7.082-14.468H26.534L1 156.924l.003 64.26zm227.397-17.67h-21.615l-.08-68.794-30.573 68.794H157.62l-30.652-68.855v68.855H84.084l-8.1-19.592h-43.9l-8.184 19.59H1l37.756-87.837h31.326l35.86 83.164v-83.164h34.412l27.593 59.587 25.347-59.587h35.104l.003 87.837zm-159.622-37.82l-14.43-35.017L40 165.695h28.78zm245.642 37.82h-70.433v-87.837h70.433v18.3h-49.35V149.8h48.164v18.005H265.07v17.542h49.348v18.167zm99.256-64.18c0 14.005-9.387 21.24-14.857 23.413 4.613 1.75 8.554 4.838 10.43 7.397 2.977 4.37 3.5 8.27 3.5 16.116v17.255h-21.266l-.08-11.077c0-5.286.508-12.887-3.328-17.112-3.08-3.1-7.777-3.76-15.367-3.76h-22.634v31.95H328.98V115.68h48.494c10.775 0 18.714.283 25.53 4.207 6.67 3.924 10.67 9.652 10.67 19.45zm-26.653 13.043c-2.897 1.75-6.324 1.8-10.43 1.8H350.98v-19.5h25.962c3.674 0 7.508.164 9.998 1.584 2.735 1.28 4.427 4.003 4.427 7.765 0 3.84-1.6 6.928-4.345 8.35zm60.466 51.138h-21.513V115.68h21.513v87.837zm249.74 0h-29.88l-39.964-65.927v65.927h-42.94l-8.205-19.592h-43.798l-7.96 19.592H499.8c-10.25 0-23.224-2.257-30.573-9.715-7.4-7.458-11.265-17.56-11.265-33.533 0-13.027 2.304-24.936 11.366-34.347 6.816-7 17.5-10.242 32.02-10.242h20.412v18.82h-19.984c-7.694 0-12.04 1.14-16.224 5.203-3.594 3.7-6.06 10.7-6.06 19.897 0 9.4 1.878 16.196 5.797 20.628 3.246 3.476 9.144 4.53 14.694 4.53h9.47l29.716-69.077h31.592l35.697 83.082V115.68h32.102l37.062 61.174V115.68h21.596v87.835zm-128.158-37.82l-14.6-35.017-14.5 35.017h29.1zm181.885 178.07c-5.122 7.458-15.1 11.24-28.612 11.24h-40.717v-18.84h40.552c4.023 0 6.838-.527 8.532-2.175a7.71 7.71 0 0 0 2.493-5.731c0-2.56-1.024-4.6-2.575-5.8-1.53-1.34-3.757-1.95-7.428-1.95-19.797-.67-44.495.6-44.495-27.193 0-12.744 8.125-26.157 30.25-26.157h41.997v-17.48h-39.02c-11.776 0-20.33 2.808-26.388 7.174v-7.174H627.83c-9.23 0-20.063 2.278-25.188 7.174v-7.174H499.578v7.174c-8.203-5.892-22.043-7.174-28.43-7.174h-67.983v7.174c-6.5-6.258-20.92-7.174-29.716-7.174h-76.084l-17.4 18.763-16.307-18.763H150v122.58h111.515l17.94-19.06 16.9 19.06 68.74.06v-28.838h6.758c9.12.14 19.877-.225 29.367-4.3v33.085h56.697v-31.95h2.735c3.5 0 3.834.143 3.834 3.616v28.332H636.7c10.935 0 22.365-2.787 28.694-7.845v7.845h54.632c11.37 0 22.47-1.587 30.92-5.65v-22.838zm-341.503-47.154c0 24.406-18.286 29.445-36.716 29.445H346.43v29.47h-40.98l-25.962-29.085-26.98 29.085H169v-87.86h84.8l25.94 28.8 26.82-28.8h67.37c16.732 0 35.532 4.613 35.532 28.944zm-167.625 40.434h-51.84v-17.48h46.3V301.64h-46.3v-15.973h52.86L265.9 311.27l-24.084 25.776zm83.527 10.06l-32.37-35.788 32.37-34.65v70.44zm47.873-39.066H345.98v-22.374h27.492c7.612 0 12.896 3.1 12.896 10.772 0 7.598-5.04 11.602-13.14 11.602zm142.743-40.373h70.37v18.17H536.97v15.973h48.167v17.926H536.97v17.48l49.372.08v18.23h-70.37v-87.86zm-27.053 47.03c4.693 1.725 8.53 4.817 10.328 7.376 2.977 4.3 3.408 8.293 3.493 16.037v17.417h-21.17v-10.992c0-5.286.5-13.112-3.408-17.197-3.08-3.147-7.777-3.9-15.47-3.9H440.16v32.1h-21.186v-87.86h48.678c10.674 0 18.448.47 25.37 4.146 6.654 4.003 10.84 9.487 10.84 19.5-.003 14.023-9.394 21.18-14.944 23.373zM477 303.6c-2.82 1.666-6.308 1.8-10.4 1.8h-25.613v-19.733h25.962c3.754 0 7.5.08 10.062 1.587 2.732 1.423 4.366 4.144 4.366 7.903s-1.634 6.788-4.366 8.433zm190.336 5.596c4.105 4.23 6.306 9.572 6.306 18.615 0 18.9-11.858 27.723-33.12 27.723h-41.066v-18.84h40.9c4 0 6.835-.527 8.612-2.175 1.45-1.36 2.5-3.333 2.5-5.73 0-2.56-1.125-4.6-2.573-5.8-1.612-1.34-3.837-1.95-7.508-1.95-19.718-.67-44.4.6-44.4-27.193 0-12.743 8.04-26.157 30.144-26.157h42.27v18.7h-38.677c-3.834 0-6.327.143-8.447 1.587-2.3 1.423-3.166 3.534-3.166 6.32 0 3.314 1.96 5.57 4.613 6.544 2.224.77 4.613.996 8.205.996l11.35.305c11.446.278 19.302 2.25 24.078 7.066zM751 285.667h-38.427c-3.837 0-6.385.143-8.532 1.587-2.224 1.423-3.08 3.534-3.08 6.32 0 3.314 1.878 5.57 4.6 6.544 2.224.77 4.613.996 8.125.996l11.427.305c11.53.283 19.228 2.257 23.92 7.07.854.67 1.368 1.423 1.956 2.175v-25z" fill="#fff"/></svg>