<svg xmlns="http://www.w3.org/2000/svg" viewBox="0 0 750 471" preserveAspectRatio="xMidYMid meet" fill-rule="evenodd"><rect width="750" height="471" rx="40" fill="#0079BE" x="0" y="0"/><path d="M584.934 237.947c0-99.416-82.98-168.133-173.895-168.1h-78.242c-92.003-.033-167.73 68.705-167.73 168.1 0 90.93 75.728 165.64 167.73 165.204h78.242c90.914.436 173.895-74.293 173.895-165.204z" fill="#fff"/><path d="M333.28 83.93c-84.07.026-152.194 68.307-152.214 152.58.02 84.258 68.144 152.532 152.214 152.56 84.1-.026 152.228-68.3 152.24-152.56-.013-84.272-68.15-152.553-152.24-152.58z" fill="#0079BE"/><path d="M237.066 236.098c.08-41.18 25.746-76.296 61.94-90.25v180.48c-36.194-13.947-61.862-49.043-61.94-90.23zm131 90.275V145.847c36.207 13.92 61.914 49.057 61.98 90.257-.066 41.213-25.773 76.322-61.98 90.27z" fill="#fff"/></svg>