<svg xmlns="http://www.w3.org/2000/svg" xmlns:xlink="http://www.w3.org/1999/xlink" viewBox="0 0 750 471" preserveAspectRatio="xMidYMid meet"><rect width="750" height="471" rx="40" fill="#F4F4F4" x="0" y="0"/><g fill="#000"><path d="M618.58 422.144c-1.213.03-2.212.432-2.998 1.208s-1.192 1.746-1.22 2.9c.028 1.157.434 2.124 1.22 2.904s1.785 1.184 2.998 1.215c1.185-.03 2.172-.436 2.96-1.215s1.197-1.747 1.227-2.904c-.03-1.165-.437-2.135-1.223-2.9s-1.774-1.178-2.964-1.208zm0 7.33c-.924-.023-1.686-.336-2.286-.94s-.9-1.36-.932-2.272c.02-.915.332-1.672.932-2.27s1.362-.908 2.286-.93c.905.022 1.655.332 2.25.93s.905 1.355.927 2.27c-.022.9-.33 1.668-.927 2.272s-1.346.916-2.25.94zm.242-5.138h-1.766v3.826h.817v-1.433h.373l1.16 1.433h.98l-1.25-1.444c.4-.05.7-.175.902-.38a1.05 1.05 0 0 0 .32-.78c-.003-.378-.136-.675-.4-.9s-.642-.326-1.134-.33zm-.01.717c.22 0 .4.043.516.128s.188.2.2.377-.066.3-.2.386-.297.13-.516.13h-.938v-1.02h.938zm-458.606 2.7h-8.755V386.87h8.583v4.982s7.54-6.088 12.017-6.012c8.706.148 13.905 7.558 13.905 7.558s4.217-7.558 13.734-7.558c14.073 0 16.137 12.883 16.137 12.883v28.86h-8.412V402.16s.03-7.73-9.098-7.73c-9.44 0-10.3 7.73-10.3 7.73v25.423h-8.755v-25.595s-.84-8.074-8.755-8.074c-10.278 0-10.472 8.245-10.472 8.245l.172 25.595z"/><use xlink:href="#B"/><use xlink:href="#B" x="123.33"/><path d="M244.137 385.667c-13.103 0-20.037 11.784-20.072 21.63-.036 10.1 7.894 21.73 20.44 21.73 7.32 0 13.333-5.407 13.333-5.407l-.016 4.165h8.618V386.86h-8.648v5.155s-5.647-6.348-13.656-6.348zm1.678 8.33c7.04 0 12.755 6.127 12.755 13.67s-5.715 13.636-12.755 13.636-12.72-6.094-12.72-13.636 5.68-13.67 12.72-13.67zm249.645-8.33c-13.103 0-20.037 11.784-20.072 21.63-.036 10.1 7.894 21.73 20.44 21.73 7.32 0 13.333-5.407 13.333-5.407l-.016 4.165h8.618V386.86h-8.648v5.155s-5.647-6.348-13.656-6.348zm1.678 8.33c7.04 0 12.755 6.127 12.755 13.67S504.178 421.3 497.14 421.3s-12.72-6.094-12.72-13.636 5.68-13.67 12.72-13.67zm81.067-8.33c-13.103 0-20.037 11.784-20.072 21.63-.036 10.1 7.894 21.73 20.44 21.73 7.32 0 13.333-5.407 13.333-5.407l-.016 4.165h8.618v-57.078h-8.648v21.3s-5.647-6.348-13.656-6.348zm1.678 8.33c7.04 0 12.755 6.127 12.755 13.67s-5.715 13.636-12.755 13.636-12.72-6.094-12.72-13.636 5.68-13.67 12.72-13.67zm-287.148 35.13c-8.927 0-17.167-5.497-17.167-5.497l3.777-5.84s7.797 3.607 13.4 3.607c3.634 0 9.712-1.174 9.785-4.8.078-3.842-10.214-4.982-10.214-4.982s-15.364-.2-15.364-12.883c0-7.97 7.673-13.055 17.5-13.055 5.684 0 16.3 4.982 16.3 4.982l-4.292 6.7s-8.203-3.28-12.532-3.436c-3.655-.132-8.07 1.62-8.07 4.8 0 8.668 25.58-.676 25.58 16.834 0 11.487-10.417 13.57-18.712 13.57zm32.93-54.107v11.9h-7.62v8.598h7.62v20.554s-.674 13.904 14.265 13.904c4.13 0 12.218-3.056 12.218-3.056l-3.457-8.934s-3.216 2.745-6.847 2.653c-6.904-.175-6.713-4.6-6.713-4.6v-20.52h14.23v-8.598h-14.23v-11.9h-9.465zm51.858 11.15c-14.05 0-21.07 11.58-21 21.63.06 10.335 6.392 21.965 21.85 21.965 6.616 0 15.9-5.8 15.9-5.8l-3.994-6.952s-6.342 4.5-11.915 4.5c-11.16 0-11.882-10.915-11.882-10.915h29.873s2.23-24.417-18.83-24.417zm-1.275 8.027c.33-.02.686 0 1.04 0 10.513 0 10.44 9.94 10.44 9.94H366.48s-.503-9.357 9.767-9.94zm90.132 22.7l4.006 8.017s-6.35 4.13-13.474 4.13c-14.75 0-22.942-11.1-22.942-21.62 0-16.52 13.035-21.378 21.85-21.378 8 0 14.93 4.616 14.93 4.616l-4.5 8.017s-2.723-4.25-10.682-4.25c-7.946 0-12.14 6.855-12.14 13.36 0 7.3 4.88 13.483 12.26 13.483 5.8 0 10.682-4.373 10.682-4.373z"/></g><path d="M624.508 278.632v-5.52h-1.44l-1.657 3.797-1.657-3.797h-1.44v5.52h1.017v-4.164l1.554 3.6h1.054l1.553-3.6v4.173h1.017zm-9.123 0v-4.578h1.845v-.933h-4.698v.933h1.845v4.578h1.007zm9.412-82.072c0 85.425-69.077 154.676-154.288 154.676s-154.29-69.25-154.29-154.676S385.298 41.884 470.5 41.884s154.288 69.25 154.288 154.676z" fill="#F79F1A"/><path d="M434.46 196.56c0 85.425-69.077 154.676-154.288 154.676s-154.288-69.25-154.288-154.676S194.96 41.884 280.172 41.884 434.46 111.135 434.46 196.56z" fill="#EA001B"/><path d="M375.34 74.798c-36 28.316-59.107 72.318-59.107 121.748s23.108 93.465 59.107 121.78c36-28.316 59.107-72.35 59.107-121.78S411.34 103.115 375.34 74.798z" fill="#FF5F01"/><defs ><path id="B" d="M426.46 385.835c-4.478-.076-12.016 6.012-12.016 6.012v-4.97h-8.593v40.874h8.76l-.168-25.592s.194-8.228 10.472-8.228c1.91 0 3.39.463 4.565 1.175v-.033l2.853-7.96c-1.722-.725-3.68-1.24-5.874-1.276z"/></defs></svg>