<svg xmlns="http://www.w3.org/2000/svg" viewBox="0 0 780 501" preserveAspectRatio="xMidYMid meet" fill-rule="evenodd"><path d="M54.992 0C24.627 0 0 24.63 0 55.004v390.992C0 476.376 24.62 501 54.992 501h670.016C755.373 501 780 476.37 780 445.996V55.004C780 24.624 755.38 0 725.008 0H54.992z" fill="#4D4D4D"/><path d="M415.13 161.213c30.94 0 56.02 23.58 56.02 52.71v.033c0 29.13-25.08 52.742-56.02 52.742s-56.02-23.613-56.02-52.742v-.033c0-29.13 25.08-52.71 56.02-52.71zm-87.98.68c8.837 0 16.248 1.785 25.268 6.1v22.752c-8.544-7.863-15.955-11.154-25.756-11.154-19.264 0-34.414 15.014-34.414 34.05 0 20.074 14.68 34.195 35.37 34.195 9.313 0 16.587-3.12 24.8-10.857v22.764c-9.34 4.14-16.91 5.775-25.756 5.775-31.278 0-55.582-22.596-55.582-51.736 0-28.826 24.95-51.88 56.07-51.88zm-97.113.627c11.546 0 22.1 3.72 30.943 10.994l-10.748 13.248c-5.35-5.646-10.41-8.027-16.564-8.027-8.853 0-15.3 4.745-15.3 10.988 0 5.355 3.62 8.19 15.945 12.482 23.365 8.044 30.29 15.176 30.29 30.926 0 19.193-14.975 32.553-36.32 32.553-15.63 0-26.993-5.795-36.457-18.87l13.268-12.03c4.73 8.6 12.622 13.223 22.42 13.223 9.163 0 15.947-5.952 15.947-13.984 0-4.163-2.055-7.734-6.158-10.258-2.066-1.195-6.158-2.977-14.2-5.646-19.292-6.538-25.9-13.527-25.9-27.186 0-16.225 14.214-28.4 32.846-28.4zm234.723 1.73H487.2l28.084 66.592 28.445-66.592h22.268l-45.494 101.686H509.45l-44.687-101.686zm-397.348.152h30.15c33.312 0 56.533 20.38 56.533 49.64 0 14.59-7.104 28.696-19.117 38.057-10.11 7.902-21.627 11.445-37.574 11.445H67.414V164.4zm96.135 0h20.54v99.143h-20.54V164.4zm411.734 0h58.252v16.8H595.81v22.006h36.336v16.79H595.81v26.762h37.727v16.785h-58.252V164.4zm71.857 0h30.455c23.7 0 37.266 10.7 37.266 29.27 0 15.18-8.514 25.14-23.986 28.105l33.148 41.766h-25.26l-28.43-39.828h-2.678v39.828H647.14V164.4zm20.516 15.615v30.025h6.002c13.117 0 20.068-5.362 20.068-15.328 0-9.648-6.953-14.697-19.744-14.697h-6.326zM87.94 181.2v65.56h5.512c13.273 0 21.656-2.394 28.11-7.88 7.104-5.956 11.377-15.466 11.377-24.98 0-9.5-4.273-18.726-11.377-24.682-6.784-5.78-14.836-8.018-28.11-8.018H87.94z" fill="#fff"/><path d="M779.982 288.36c-26.05 18.33-221.077 149.34-558.754 212.623H725c30.366 0 54.992-24.63 54.992-55.004V288.36z" fill="#F47216"/></svg>