<svg xmlns="http://www.w3.org/2000/svg" viewBox="0 0 750 471" preserveAspectRatio="xMidYMid meet"><defs><linearGradient x1="0.031607858%" y1="49.9998574%" x2="99.9743153%" y2="49.9998574%" id="A"><stop stop-color="#007B40" offset="0%"/><stop stop-color="#55B330" offset="100%"/></linearGradient><linearGradient x1="0.471693172%" y1="49.999826%" x2="99.9860086%" y2="49.999826%" id="B"><stop stop-color="#1D2970" offset="0%"/><stop stop-color="#006DBA" offset="100%"/></linearGradient><linearGradient x1="0.113880772%" y1="50.0008964%" x2="99.9860003%" y2="50.0008964%" id="C"><stop stop-color="#6E2B2F" offset="0%"/><stop stop-color="#E30138" offset="100%"/></linearGradient></defs><g fill-rule="evenodd"><rect width="750" height="471" rx="40" fill="#0E4C96" x="0" y="0"/><path d="M617.243 346.766c0 41.615-33.728 75.36-75.36 75.36H132.757v-297.88c0-41.626 33.733-75.37 75.365-75.37h409.12v297.892z" fill="#fff"/><path d="M483.86 242.045c11.684.253 23.437-.516 35.077.4 11.787 2.2 14.628 20.043 4.156 25.888-7.142 3.85-15.633 1.432-23.38 2.114H483.86v-28.4zm41.833-32.144c2.597 9.164-6.238 17.392-15.066 16.13H483.86c.185-8.642-.368-18.022.272-26.21 10.724.302 21.55-.616 32.21.48 4.58 1.15 8.414 4.916 9.35 9.6zm64.43-135.903c.497 17.5.07 35.926.213 53.783l-.055 217.79c-.468 27.207-24.582 50.844-51.6 51.387l-81.14.048v-109.75l88.416-.232c13.667-.86 28.633-9.876 29.27-24.914 1.6-15.102-12.63-25.55-26.152-27.202-5.198-.135-5.044-1.515 0-2.117 12.892-2.786 23.02-16.133 19.226-29.5-3.236-14.058-18.773-19.5-31.696-19.472l-79.063-.077.285-61.474C459.9 95.55 484.63 73.52 511.27 73.998h78.85z" fill="url(#A)"/><path d="M159.74 125.04c.673-27.164 24.888-50.61 51.874-51.008l80.837-.035-.11 272.658c-1.038 26.834-25 49.833-51.68 50.307l-80.992.042V283.55c26.223 6.195 53.722 8.832 80.473 4.72 15.992-2.575 33.488-10.424 38.902-27.015 3.986-14.19 1.74-29.126 2.334-43.69v-33.825H235.08c-.208 22.37.426 44.78-.335 67.126-1.248 13.734-14.846 22.46-27.8 21.995-16.067.17-47.9-11.64-47.9-11.64l.693-136.18z" fill="url(#B)"/><path d="M309.72 197.4c-2.434.517-.49-8.3-1.114-11.646l.283-63.458c2.083-26.83 26.992-48.916 53.74-48.288h78.766l-.11 272.656c-1.04 26.834-24.992 49.833-51.68 50.308l-80.996.043V272.708c18.44 15.128 43.5 17.485 66.472 17.526 17.317-.006 34.534-2.676 51.35-6.67V260.8c-18.953 9.446-41.233 15.446-62.243 10.018-14.656-3.65-25.294-17.81-25.056-32.936-1.7-15.73 7.524-32.335 22.982-37.01 19.19-6.008 40.108-1.412 58.096 6.398 3.854 2.018 7.764 4.522 6.222-1.92v-17.9c-30.085-7.157-62.1-9.792-92.33-2.005-8.748 2.468-17.27 6.21-24.38 11.957z" fill="url(#C)"/></g></svg>