<svg xmlns="http://www.w3.org/2000/svg" viewBox="0 0 750 471" preserveAspectRatio="xMidYMid meet" fill-rule="evenodd"><rect width="750" height="471" rx="40" fill="#0E4595" x="0" y="0"/><path d="M278.198 334.228l33.36-195.762h53.36l-33.384 195.762h-53.336zm246.1-191.54c-10.572-3.966-27.136-8.222-47.823-8.222-52.724 0-89.864 26.55-90.18 64.604-.297 28.13 26.514 43.82 46.754 53.185 20.77 9.595 27.752 15.715 27.653 24.283-.132 13.122-16.586 19.117-31.923 19.117-21.357 0-32.703-2.967-50.226-10.276l-6.876-3.112-7.5 43.824c12.463 5.464 35.5 10.2 59.438 10.444 56.1 0 92.5-26.247 92.915-66.882.2-22.27-14.015-39.217-44.8-53.188-18.65-9.056-30.073-15.1-29.952-24.27 0-8.137 9.668-16.838 30.557-16.838 17.45-.27 30.088 3.534 39.936 7.5l4.782 2.26 7.233-42.43m137.33-4.22h-41.23c-12.773 0-22.33 3.486-27.94 16.234L513.2 334.103h56.03l11.234-29.418 68.336.084 6.492 29.334h49.512l-43.188-195.637zm-65.417 126.407l21.26-54.723c-.315.52 4.38-11.334 7.075-18.684l3.607 16.878 12.352 56.528-44.293.001zM232.903 138.466l-52.24 133.495-5.566-27.13c-9.725-31.274-40.025-65.156-73.9-82.12l47.767 171.203 56.455-.065 84.004-195.385h-56.52" fill="#fff"/><path d="M131.92 138.466H45.88l-.68 4.073c66.94 16.204 111.232 55.363 129.618 102.414l-18.71-89.96c-3.23-12.396-12.598-16.095-24.187-16.527" fill="#F2AE14"/></svg>