<svg width="21" height="8" viewBox="0 0 21 8" fill="none" xmlns="http://www.w3.org/2000/svg">
<path d="M20.8005 4.42344C20.9883 4.69417 20.5479 5.03171 20.2581 4.87489C19.1216 4.25985 17.0274 3.51595 13.3336 3.24873C13.4601 3.62946 13.5292 4.04106 13.5292 4.47059C13.5292 6.41983 12.106 8 10.3504 8C8.5948 8 7.17161 6.41983 7.17161 4.47059C7.17161 4.04149 7.24057 3.63028 7.36687 3.24987C3.97932 3.49921 2.03118 4.15863 0.936086 4.74364C0.640083 4.90176 0.118496 4.53027 0.305489 4.25161C1.35419 2.68877 3.96308 0.5 10.3504 0.5C16.9755 0.5 19.7124 2.85481 20.8005 4.42344Z" fill="#333333"/>
</svg>
